<svg version="1.1" id="Layer_1" xmlns="http://www.w3.org/2000/svg" xmlns:xlink="http://www.w3.org/1999/xlink" x="0px" y="0px"
	 width="100%" viewBox="0 0 1024 1024" enable-background="new 0 0 1024 1024" xml:space="preserve">
<path fill="#FDFDFD" opacity="1.000000" stroke="none" 
	d="
M655.000000,1025.000000 
	C436.666656,1025.000000 218.833328,1025.000000 1.000000,1025.000000 
	C1.000000,683.666687 1.000000,342.333344 1.000000,1.000000 
	C342.333344,1.000000 683.666687,1.000000 1025.000000,1.000000 
	C1025.000000,342.333344 1025.000000,683.666687 1025.000000,1025.000000 
	C901.833313,1025.000000 778.666687,1025.000000 655.000000,1025.000000 
M582.848328,461.925537 
	C581.261230,459.567871 579.674133,457.210175 577.963562,454.174133 
	C568.052673,437.746918 558.141846,421.319733 548.181702,404.810852 
	C547.797302,406.349976 547.361755,408.071198 546.937744,409.795258 
	C544.622192,419.210022 542.309448,428.625488 539.533997,437.509949 
	C537.717285,436.942261 535.900635,436.374573 534.050781,434.950836 
	C533.962891,433.788391 533.840942,432.627350 533.792236,431.463257 
	C533.062683,414.011017 528.217590,397.094910 529.222778,379.219482 
	C529.981079,365.735962 525.867249,351.978485 523.859131,337.902313 
	C520.340759,338.375427 517.246216,338.791504 513.294312,339.104523 
	C498.554840,341.057526 483.815338,343.010559 468.186188,344.970123 
	C464.566193,345.380188 460.936249,345.718170 457.328125,346.214539 
	C448.340118,347.450928 439.362000,348.759399 429.436951,349.896423 
	C414.977814,351.672394 400.518707,353.448364 385.219452,355.190674 
	C372.654480,356.918884 360.089478,358.647125 346.603119,360.185486 
	C331.780029,362.074615 316.956909,363.963715 301.235077,365.832214 
	C282.920959,368.083435 264.606873,370.334656 246.292770,372.585876 
	C246.191803,372.175385 246.090851,371.764923 245.989883,371.354462 
	C247.377411,370.610291 248.718613,369.758087 250.160233,369.140167 
	C257.480713,366.002197 264.880280,363.043549 272.149231,359.791901 
	C278.912292,356.766602 285.545929,353.451935 293.010071,350.274780 
	C298.682648,348.095459 304.437622,346.106171 310.007935,343.690948 
	C317.812622,340.306885 325.479828,336.605774 333.940155,333.061615 
	C345.751373,328.078857 357.562592,323.096069 370.082275,318.050171 
	C372.678406,316.978210 375.302551,315.968903 377.865784,314.823425 
	C388.686249,309.987976 399.488556,305.111908 411.023468,300.213654 
	C422.411285,295.436462 433.799103,290.659271 445.886414,285.855530 
	C454.378723,282.218353 462.906830,278.661743 471.350433,274.914856 
	C476.714508,272.534515 481.953094,269.871368 488.003784,267.314514 
	C491.388611,266.068512 494.773438,264.822479 499.087219,263.234497 
	C494.464020,253.477432 490.607605,243.899063 485.517670,235.028473 
	C481.024658,227.198227 472.302612,224.737747 463.655060,227.904434 
	C456.953094,230.358643 450.486237,233.454910 443.237122,236.359161 
	C441.454437,237.213821 439.695648,238.123230 437.885162,238.914337 
	C425.808441,244.191330 413.720673,249.443039 400.921692,254.788895 
	C389.617371,259.623322 378.313019,264.457764 366.315948,269.376587 
	C362.672180,270.963135 359.016449,272.522766 355.386993,274.141418 
	C345.439789,278.577667 335.503662,283.038666 324.827759,287.511139 
	C313.169464,292.611237 301.511169,297.711304 289.108795,302.878510 
	C275.648651,308.773621 262.188507,314.668732 247.990143,320.713379 
	C231.202255,327.864716 214.414368,335.016022 197.257614,342.324493 
	C198.068375,344.443176 198.661652,345.959381 199.230347,347.484772 
	C205.645081,364.690887 214.054962,381.229034 214.689377,400.242249 
	C214.970840,408.677185 218.005005,416.813080 219.994064,425.022217 
	C224.043579,441.735046 224.887787,459.227936 227.001038,476.405762 
	C230.739944,506.797913 234.285873,537.214783 238.222794,567.581116 
	C240.150757,582.451843 252.355026,593.024109 265.861267,591.577209 
	C285.219421,589.503418 304.524414,586.929932 323.847168,584.530273 
	C357.538300,580.346130 391.225677,576.131958 425.222382,572.688049 
	C427.085358,585.808594 428.917725,598.933533 430.826752,612.047363 
	C431.564636,617.116150 432.881775,622.659973 438.259094,624.033508 
	C445.677460,625.928345 453.477356,626.329590 461.913818,627.529053 
	C465.604156,626.083618 469.732758,625.271179 472.903656,623.075562 
	C482.923431,616.137695 493.567688,614.883362 505.039948,618.080872 
	C506.317719,618.436951 507.632538,618.692505 508.946472,618.881836 
	C551.913513,625.073914 594.882629,631.252136 637.995056,638.257874 
	C638.106812,640.406067 638.128174,642.563538 638.347839,644.700684 
	C638.936523,650.427917 641.542419,655.581299 647.148010,656.746521 
	C655.812073,658.547424 664.780334,658.884827 674.092529,659.870056 
	C674.092529,659.870056 674.328064,659.459045 674.815491,659.858398 
	C675.385254,659.651184 675.954956,659.443970 677.248535,659.346985 
	C679.231995,658.528381 681.354187,657.942505 683.177856,656.855774 
	C706.329529,643.059326 729.367432,629.070129 752.608459,615.426697 
	C758.317261,612.075378 761.360535,607.610352 762.201843,601.217163 
	C766.069092,571.829346 769.993164,542.449036 773.919800,513.069031 
	C775.463989,501.514832 777.219055,489.986267 778.574524,478.410522 
	C779.159241,473.417603 780.634155,468.082886 776.170471,463.057495 
	C771.367249,460.349884 766.564026,457.642273 761.907959,454.054474 
	C762.588501,449.521790 763.118225,444.960297 763.976318,440.461456 
	C767.374390,422.645691 771.072510,404.885040 774.285034,387.036530 
	C777.846619,367.248413 782.223511,347.494751 783.986389,327.526642 
	C785.756042,307.482269 777.703979,290.741943 758.918274,281.337982 
	C739.822205,271.778656 719.144897,267.390045 697.216431,264.884552 
	C669.180176,261.355469 641.112915,260.720001 613.057861,264.464905 
	C600.320618,266.165131 587.734985,268.633942 576.621277,275.737915 
	C562.660950,284.661530 554.063477,302.242706 557.242554,317.479065 
	C558.740845,316.277008 559.668396,314.508240 560.989990,313.112518 
	C590.603821,281.837067 635.321045,280.798462 665.973694,302.928680 
	C680.471863,313.395905 690.070496,327.524963 695.817993,345.148132 
	C696.557068,348.094788 697.296204,351.041412 697.946106,354.838287 
	C700.146545,366.179810 699.422302,377.435303 695.668518,388.256500 
	C692.530518,397.302582 688.404724,406.006042 684.181824,415.259857 
	C680.740845,421.470795 677.299866,427.681763 673.283142,434.249115 
	C658.741211,455.377289 644.199219,476.505432 629.100098,498.014191 
	C628.059143,499.289673 627.044495,500.587738 625.972717,501.836853 
	C621.012512,507.617920 617.067444,507.663727 612.156677,501.932678 
	C610.130676,499.568298 608.239563,497.088379 605.900879,494.102570 
	C598.342957,483.549805 590.785034,472.997009 582.848328,461.925537 
M628.708435,486.166504 
	C628.866272,485.807312 629.024109,485.448120 629.728394,484.716644 
	C633.490967,479.475159 637.253540,474.233643 641.556396,468.603760 
	C647.309204,460.058838 653.062073,451.513916 659.351074,442.545349 
	C661.338989,439.211212 663.326965,435.877106 665.901917,432.170258 
	C668.586243,427.445557 671.270508,422.720825 674.459595,417.521179 
	C676.059326,414.233582 677.659058,410.945953 679.826721,407.198578 
	C682.202454,401.798828 684.578186,396.399048 687.465515,390.466125 
	C688.696289,385.810486 690.524963,381.222351 691.059814,376.488068 
	C694.278992,347.992798 684.035645,324.764313 660.859619,308.488159 
	C636.755249,291.559998 610.441956,290.277649 584.365845,304.141296 
	C551.670471,321.524139 537.767456,361.073792 552.334473,393.699188 
	C554.739868,398.860779 557.145264,404.022369 559.817017,409.852264 
	C561.845764,413.245819 563.874512,416.639404 565.958679,420.747986 
	C568.858459,425.542908 571.758240,430.337830 574.796143,435.839966 
	C576.893494,438.882568 578.990784,441.925201 581.192444,445.653137 
	C586.360962,453.133118 591.529541,460.613129 596.909119,468.768219 
	C601.551941,474.895233 606.194763,481.022247 610.879089,487.851532 
	C613.516907,491.282837 616.154724,494.714142 619.335327,498.851532 
	C622.561279,494.348999 625.203491,490.661163 628.132751,486.794312 
	C628.132751,486.794312 628.179565,486.459229 628.708435,486.166504 
M473.845367,758.603516 
	C473.601776,753.975037 473.358154,749.346558 473.114532,744.718079 
	C474.779144,746.038391 475.383545,747.522461 475.907715,749.034363 
	C482.225555,767.258484 488.603546,785.462402 494.772034,803.737000 
	C495.844574,806.914307 497.253754,808.564697 500.763672,808.017273 
	C502.390503,807.763550 504.109619,807.790100 505.748962,807.994202 
	C508.951538,808.393005 510.447266,807.020142 511.492432,804.004944 
	C515.849487,791.435547 520.510742,778.972046 524.950134,766.430603 
	C527.633240,758.850952 530.113892,751.199768 533.126953,742.272766 
	C533.126953,765.061707 533.126953,786.316833 533.126953,807.539856 
	C539.617737,807.539856 545.670471,807.539856 551.671387,807.539856 
	C551.671387,777.211731 551.671387,747.316895 551.671387,716.969238 
	C544.663269,716.969238 538.014832,717.296631 531.418091,716.853760 
	C527.038879,716.559753 525.355896,718.319153 524.098938,722.196777 
	C519.942749,735.018616 515.466858,747.737183 511.071991,760.481079 
	C508.610077,767.619873 506.065887,774.730347 503.042236,783.321167 
	C501.750488,779.580017 500.944061,777.306396 500.179047,775.018860 
	C494.108673,756.867798 488.068512,738.706482 481.933807,720.577271 
	C481.499939,719.294983 480.418549,717.261414 479.586029,717.235168 
	C471.528137,716.981628 463.459137,717.082947 455.626221,717.082947 
	C455.626221,747.835144 455.626221,777.706421 455.626221,807.444824 
	C462.064667,807.444824 467.960968,807.444824 473.866669,807.444824 
	C473.866669,791.192139 473.866669,775.384888 473.845367,758.603516 
M691.817017,762.671509 
	C686.238403,760.095825 680.682251,757.469971 675.074036,754.960327 
	C670.678711,752.993408 666.068054,751.453674 661.833557,749.197693 
	C658.169434,747.245605 655.810486,743.436340 657.360718,739.588318 
	C658.567383,736.593201 661.574219,733.357422 664.545166,732.213989 
	C674.830627,728.255493 682.725220,732.859924 685.561340,743.644104 
	C691.763184,743.644104 697.964355,743.644104 704.340820,743.644104 
	C703.814941,731.658936 697.941162,723.550476 687.632080,719.214783 
	C675.393066,714.067505 662.757019,714.370178 650.818909,720.295227 
	C633.921997,728.681274 632.745178,751.542847 648.713501,761.583862 
	C654.286926,765.088501 660.708984,767.259521 666.788025,769.938599 
	C671.041260,771.813049 675.485596,773.285095 679.632629,775.360474 
	C683.789124,777.440552 685.527893,781.231262 684.832397,785.794861 
	C684.142639,790.320312 680.964661,792.828857 676.695618,793.497009 
	C663.252136,795.600891 655.341675,792.336304 652.767456,779.781677 
	C647.036255,779.781677 641.282593,779.781677 635.571655,779.781677 
	C634.440918,790.454590 639.948853,800.019958 650.545654,804.778381 
	C663.823486,810.740723 677.419800,810.544312 690.862610,805.154114 
	C698.649231,802.031921 702.824951,795.909058 704.034546,787.694580 
	C705.621826,776.914795 701.308716,768.907776 691.817017,762.671509 
M231.327484,721.128662 
	C218.937485,714.388489 206.048523,714.246094 193.234955,719.216492 
	C184.659134,722.543030 179.036621,729.011230 177.920776,738.568848 
	C176.758087,748.527832 180.832230,756.118408 189.046753,761.476074 
	C192.360519,763.637390 195.969711,765.437500 199.629395,766.956299 
	C205.760971,769.500916 212.128067,771.483887 218.231323,774.089172 
	C223.335876,776.268188 225.872131,780.953796 224.962677,785.685242 
	C223.967438,790.862854 220.202957,793.053284 215.437927,793.879333 
	C203.039124,796.028809 196.296890,791.886780 193.074356,780.259583 
	C193.000839,779.994324 192.616852,779.815186 192.469772,779.680298 
	C186.751556,779.680298 181.134079,779.680298 175.550629,779.680298 
	C174.698349,790.813049 180.640320,800.356995 191.558426,805.074890 
	C202.508347,809.806396 213.852859,810.163635 225.298523,807.078491 
	C235.264587,804.392334 242.180878,798.533691 243.894180,787.886292 
	C245.688980,776.732361 241.195908,768.240967 231.776581,762.590698 
	C226.684113,759.535950 220.978119,757.501160 215.539093,755.027893 
	C210.564911,752.766052 205.165848,751.145935 200.694580,748.141052 
	C194.334351,743.866760 195.520111,735.517639 202.618729,732.703674 
	C212.557022,728.764160 223.346985,731.198303 225.578018,743.585205 
	C231.663300,743.585205 237.748566,743.585205 244.163986,743.585205 
	C243.783875,733.861938 239.482132,726.809753 231.327484,721.128662 
M274.364136,745.613892 
	C274.174286,744.012207 273.984406,742.410583 273.793884,740.803223 
	C267.906342,740.803223 262.507111,740.803223 257.162537,740.803223 
	C257.162537,772.036560 257.162537,802.906799 257.162537,833.950500 
	C263.384186,833.950500 269.157867,833.950500 275.661224,833.950500 
	C275.661224,823.553528 275.661224,813.383728 275.661224,802.709534 
	C290.327332,813.531494 307.439789,809.958130 314.475067,794.647095 
	C320.936005,780.586060 320.633423,766.020386 313.683960,752.197388 
	C306.511993,737.931946 288.909790,735.128601 276.866699,745.691406 
	C276.330444,746.161743 275.371582,746.150269 274.364136,745.613892 
M329.964996,758.499695 
	C329.502563,759.747681 328.998352,760.981995 328.584167,762.245728 
	C323.899506,776.539368 328.915894,793.961792 340.149170,802.458923 
	C351.521210,811.061096 370.070282,811.449036 381.998596,803.333984 
	C394.450104,794.862915 400.170593,779.677002 396.540894,764.728943 
	C393.311035,751.427551 381.814331,740.758728 368.953125,739.127625 
	C350.270111,736.758240 338.478271,742.437805 329.964996,758.499695 
M569.013916,757.538452 
	C574.541626,773.587708 580.102295,789.625732 585.581360,805.691589 
	C587.884949,812.446289 583.686890,818.994629 576.538025,819.955261 
	C574.786987,820.190613 573.011780,820.246155 570.865540,820.414307 
	C570.865540,824.288818 570.525879,827.814209 571.031372,831.214050 
	C571.235718,832.588196 573.137634,834.536072 574.520264,834.778442 
	C585.852234,836.765198 595.766724,831.504272 599.754272,820.728333 
	C607.079895,800.931580 613.905212,780.949402 620.899719,761.030701 
	C623.282349,754.245361 625.546692,747.418457 628.077759,739.986145 
	C621.772705,739.986145 616.441772,739.754578 611.155640,740.139526 
	C609.731018,740.243225 607.675049,741.967163 607.213623,743.375000 
	C603.637817,754.284851 600.391907,765.302551 597.012024,776.277039 
	C596.671326,777.383423 596.119629,778.424805 595.357056,780.225342 
	C594.630859,778.272156 594.173279,777.220154 593.844482,776.129272 
	C590.579224,765.294739 587.408569,754.430603 583.996460,743.642700 
	C583.547424,742.222839 581.957031,740.207886 580.789124,740.133484 
	C575.068115,739.769043 569.311218,739.968323 562.952515,739.968323 
	C565.109375,746.163025 566.958069,751.472717 569.013916,757.538452 
M789.308838,749.915588 
	C788.069031,753.206604 786.829285,756.497620 785.234619,760.730591 
	C791.605774,760.730591 796.570923,760.819336 801.526794,760.644104 
	C802.362793,760.614563 803.453796,759.612427 803.925049,758.776733 
	C807.018433,753.290894 811.364136,751.513367 817.202759,753.523926 
	C821.792603,755.104492 823.338562,758.832275 822.072144,766.071716 
	C819.207153,766.071716 816.156494,765.633972 813.284546,766.164368 
	C807.603943,767.213440 801.724182,768.093689 796.466248,770.318542 
	C787.586975,774.075806 783.316101,782.775146 784.718567,791.914734 
	C787.037354,807.025879 805.491760,813.882263 819.306824,804.757568 
	C820.755676,803.800476 822.162292,802.779480 823.217529,802.046021 
	C824.679810,804.158142 825.750366,807.282410 827.137207,807.429688 
	C832.646301,808.014893 838.254150,807.670410 843.104370,807.670410 
	C842.588501,800.263611 841.909607,793.542175 841.704773,786.806274 
	C841.451660,778.480774 841.681641,770.141602 841.534058,761.811340 
	C841.420654,755.412842 839.614746,749.625916 834.394592,745.419739 
	C822.734070,736.024109 797.874207,737.296753 789.308838,749.915588 
M732.577332,741.981995 
	C718.285095,749.428284 712.430908,762.627747 714.908325,781.820007 
	C716.647034,795.289551 725.424316,804.978455 738.293030,807.809753 
	C751.283325,810.667725 767.177185,807.706726 774.011475,796.742432 
	C771.191589,793.734558 768.390869,790.747070 765.533325,787.698914 
	C757.900757,794.298767 749.730591,796.385620 740.786926,792.081360 
	C736.167480,789.858093 733.751221,785.807861 733.625549,779.825317 
	C747.942078,779.825317 761.809631,779.825317 776.424011,779.825317 
	C775.773926,773.381348 775.645508,767.534119 774.522644,761.884460 
	C771.774414,748.056580 762.015442,739.705933 747.937805,739.400024 
	C743.070862,739.294250 738.167358,740.869812 732.577332,741.981995 
M416.526001,803.996155 
	C424.453400,810.138672 433.015198,809.549011 441.524292,806.976685 
	C441.524292,802.136414 441.524292,797.903259 441.524292,793.415710 
	C440.228516,793.549927 439.424133,793.644836 438.617584,793.714966 
	C432.092621,794.282227 430.101959,792.563843 429.969971,786.044128 
	C429.875580,781.381531 429.935333,776.715759 429.932587,772.051392 
	C429.929047,765.948547 429.931732,759.845764 429.931732,753.333008 
	C434.017548,753.333008 437.456879,753.333008 440.898132,753.333008 
	C440.898132,748.714722 440.898132,744.546753 440.898132,740.196106 
	C438.757294,740.196106 437.075073,740.007568 435.450134,740.232727 
	C431.174072,740.825317 429.292236,739.426819 429.806549,734.814819 
	C430.203186,731.258362 429.885620,727.622314 429.885620,723.851074 
	C423.489105,723.851074 417.737671,723.851074 411.321350,723.851074 
	C411.321350,729.335388 411.321350,734.537170 411.321350,739.927734 
	C407.903534,740.089600 405.138092,740.220520 402.086334,740.365051 
	C402.086334,744.705750 402.086334,748.767029 402.086334,753.112976 
	C403.234558,753.192993 404.229889,753.449402 405.157593,753.296326 
	C410.680969,752.384644 411.754272,755.097290 411.608459,760.042603 
	C411.309143,770.193970 411.159271,780.389954 411.818542,790.510803 
	C412.105011,794.908569 414.540741,799.166382 416.526001,803.996155 
M855.605347,740.221375 
	C854.170105,740.337769 852.734924,740.454224 851.219971,740.577087 
	C851.219971,744.965942 851.219971,748.906799 851.219971,753.121643 
	C854.482422,753.371704 857.535034,753.605713 860.968445,753.868958 
	C860.968445,756.169861 860.964233,757.971985 860.969116,759.774109 
	C860.997192,770.090271 860.871521,780.409973 861.111877,790.721252 
	C861.270569,797.531616 863.106018,804.331482 870.277527,806.403015 
	C875.955261,808.043030 882.282410,807.551575 888.328064,807.677490 
	C889.257751,807.696838 890.948059,806.011414 891.043396,804.997559 
	C891.379211,801.422729 891.173889,797.797119 891.173889,793.990295 
	C889.657104,793.990295 889.011108,793.972046 888.366455,793.993103 
	C880.846558,794.238647 879.493530,792.986755 879.417725,785.616089 
	C879.335510,777.630371 879.189880,769.643860 879.238831,761.658630 
	C879.290588,753.223450 877.827820,753.212463 887.579468,753.471191 
	C888.540649,753.496765 889.507812,753.292908 890.596924,753.182922 
	C890.596924,748.898315 890.596924,744.846069 890.596924,740.499878 
	C888.661133,740.401184 887.006226,740.085876 885.413208,740.279724 
	C880.950500,740.822693 878.965210,739.261169 879.419739,734.529846 
	C879.760376,730.983887 879.487000,727.378967 879.487000,723.930786 
	C872.891602,723.930786 867.154297,723.930786 860.968323,723.930786 
	C860.968323,728.165466 860.746704,731.987854 861.032593,735.771912 
	C861.301025,739.323608 859.966614,740.694824 855.605347,740.221375 
z"/>
<path fill="#1A364D" opacity="1.000000" stroke="none" 
	d="
M430.379913,350.038940 
	C439.362000,348.759399 448.340118,347.450928 457.328125,346.214539 
	C460.936249,345.718170 464.566193,345.380188 468.636078,345.342468 
	C461.330322,361.477081 453.574707,377.239380 445.339966,393.975372 
	C460.247650,392.080444 473.730530,390.425781 487.185333,388.567352 
	C488.571747,388.375824 490.395111,387.272400 490.994965,386.079010 
	C498.821289,370.509216 506.463257,354.846771 514.151672,339.207642 
	C517.246216,338.791504 520.340759,338.375427 523.859131,337.902313 
	C525.867249,351.978485 529.981079,365.735962 529.222778,379.219482 
	C528.217590,397.094910 533.062683,414.011017 533.792236,431.463257 
	C533.840942,432.627350 533.962891,433.788391 533.658691,435.375000 
	C525.015686,435.361145 516.653320,433.848022 508.535217,434.690002 
	C485.665649,437.062012 463.667603,443.549622 442.000397,451.049072 
	C437.513641,452.602051 433.355621,455.104858 428.709656,457.200439 
	C415.844147,465.228729 412.736023,477.317413 414.253357,491.035919 
	C415.693542,504.057098 417.798523,517.003662 419.521088,529.994995 
	C421.373566,543.966248 423.121246,557.951294 424.914642,571.930359 
	C391.225677,576.131958 357.538300,580.346130 323.847168,584.530273 
	C304.524414,586.929932 285.219421,589.503418 265.861267,591.577209 
	C252.355026,593.024109 240.150757,582.451843 238.222794,567.581116 
	C234.285873,537.214783 230.739944,506.797913 227.001038,476.405762 
	C224.887787,459.227936 224.043579,441.735046 219.994064,425.022217 
	C218.005005,416.813080 214.970840,408.677185 214.689377,400.242249 
	C214.054962,381.229034 205.645081,364.690887 199.230347,347.484772 
	C198.661652,345.959381 198.068375,344.443176 197.257614,342.324493 
	C214.414368,335.016022 231.202255,327.864716 248.614563,320.913391 
	C258.077271,327.201935 266.890076,333.327911 275.763275,339.365082 
	C281.206512,343.068634 286.742310,346.636108 292.236572,350.264648 
	C285.545929,353.451935 278.912292,356.766602 272.149231,359.791901 
	C264.880280,363.043549 257.480713,366.002197 250.160233,369.140167 
	C248.718613,369.758087 247.377411,370.610291 245.989883,371.354462 
	C246.090851,371.764923 246.191803,372.175385 246.292770,372.585876 
	C264.606873,370.334656 282.920959,368.083435 301.728607,366.233704 
	C301.699921,368.016998 301.290192,369.454498 300.637939,370.771942 
	C294.355682,383.460663 288.022919,396.124390 281.734009,408.809814 
	C280.982269,410.326202 280.405640,411.929443 279.729218,413.536560 
	C280.758667,413.891357 281.080566,414.119354 281.372833,414.086182 
	C294.432800,412.603027 307.498749,411.164032 320.535065,409.494080 
	C321.900238,409.319153 323.643341,408.045868 324.274597,406.805542 
	C332.125366,391.380096 339.802643,375.866364 347.524506,360.375336 
	C360.089478,358.647125 372.654480,356.918884 385.635498,355.572754 
	C385.387207,357.634491 384.836151,359.369995 384.040466,360.984924 
	C378.159821,372.920349 372.208252,384.820801 366.337158,396.760834 
	C365.291992,398.886414 364.517212,401.144958 363.334869,404.032654 
	C365.958466,403.852295 367.595978,403.824005 369.210022,403.614838 
	C378.108368,402.461578 386.974518,400.652222 395.903564,400.265533 
	C403.778259,399.924530 408.288269,397.093750 411.451721,389.596954 
	C417.128540,376.144012 424.004883,363.197235 430.379913,350.038940 
M228.356842,359.045868 
	C222.618637,355.079681 216.012848,356.833679 215.015076,362.631256 
	C214.295944,366.809692 215.350372,370.796204 219.591904,371.870300 
	C222.327194,372.562927 226.383194,371.938660 228.513458,370.235870 
	C231.974014,367.469757 231.804626,363.287933 228.356842,359.045868 
z"/>
<path fill="#E03C40" opacity="1.000000" stroke="none" 
	d="
M695.755798,344.393921 
	C690.070496,327.524963 680.471863,313.395905 665.973694,302.928680 
	C635.321045,280.798462 590.603821,281.837067 560.989990,313.112518 
	C559.668396,314.508240 558.740845,316.277008 557.242554,317.479065 
	C554.063477,302.242706 562.660950,284.661530 576.621277,275.737915 
	C587.734985,268.633942 600.320618,266.165131 613.057861,264.464905 
	C641.112915,260.720001 669.180176,261.355469 697.699097,265.386475 
	C706.443787,268.632111 714.813782,271.091492 722.945251,274.179169 
	C739.434082,280.440277 750.853088,291.711212 755.832764,308.951599 
	C759.083313,320.205780 758.635315,331.695557 756.688904,342.959991 
	C753.286499,362.650543 749.060974,382.198486 745.213562,401.812683 
	C741.811340,419.157135 738.454407,436.510529 734.656128,453.911499 
	C715.158142,458.975830 696.081543,463.988586 677.052612,468.594116 
	C677.574829,465.089447 677.990234,461.981567 678.534058,458.896362 
	C680.943604,445.227203 683.420959,431.569855 685.754517,417.887848 
	C685.911926,416.964844 685.085327,415.873993 684.716370,414.861237 
	C688.404724,406.006042 692.530518,397.302582 695.668518,388.256500 
	C699.422302,377.435303 700.146545,366.179810 698.350708,354.356079 
	C699.513733,352.501190 700.502441,351.204620 700.986633,349.741180 
	C702.328857,345.684113 703.500916,341.568878 704.666687,337.455719 
	C706.437073,331.209503 708.145386,324.945770 709.880066,318.689453 
	C709.337769,318.459198 708.795532,318.228943 708.253235,317.998688 
	C704.087463,326.797089 699.921631,335.595520 695.755798,344.393921 
M710.515564,316.418365 
	C710.515564,316.418365 710.577759,316.527557 710.515564,316.418365 
z"/>
<path fill="#E03B3F" opacity="1.000000" stroke="none" 
	d="
M425.068512,572.309204 
	C423.121246,557.951294 421.373566,543.966248 419.521088,529.994995 
	C417.798523,517.003662 415.693542,504.057098 414.253357,491.035919 
	C412.736023,477.317413 415.844147,465.228729 428.774475,457.537659 
	C429.663971,458.231445 430.098145,458.736755 430.648315,458.988220 
	C442.209015,464.271423 454.264526,467.030060 466.998840,466.373718 
	C465.707062,468.231659 464.565979,469.852142 463.194824,471.246338 
	C457.202728,477.339142 454.327942,484.929626 454.145660,493.161682 
	C453.911896,503.718994 454.687653,514.299133 455.065674,524.868103 
	C455.085907,525.433533 455.450562,525.986633 455.709961,526.696289 
	C457.600983,524.279663 459.274841,522.140625 461.276611,520.159302 
	C466.661621,521.594055 471.653809,523.309448 476.787415,524.069641 
	C495.719391,526.873352 514.686401,529.450745 533.662964,531.940063 
	C550.356323,534.129944 567.061707,536.254150 583.795471,538.101990 
	C600.529907,539.949707 617.306152,541.418762 634.013550,543.401245 
	C622.543335,559.014160 623.205811,575.379761 630.566650,593.335205 
	C621.669373,592.315979 613.867615,591.509094 606.090515,590.510803 
	C594.939392,589.079285 583.808777,587.489136 572.664795,586.001648 
	C561.028992,584.448547 549.385742,582.950867 537.749207,581.403259 
	C524.307556,579.615479 510.862091,577.853394 497.432495,575.978333 
	C487.770294,574.629211 478.005859,573.647095 468.540619,571.422363 
	C464.453522,570.461731 461.006348,566.778381 457.062378,564.196899 
	C457.357452,567.418884 457.747986,570.937134 457.987885,574.465698 
	C458.426544,580.917480 458.782837,587.374878 459.161438,593.830627 
	C459.817078,605.010315 460.463562,616.190613 461.113831,627.370605 
	C453.477356,626.329590 445.677460,625.928345 438.259094,624.033508 
	C432.881775,622.659973 431.564636,617.116150 430.826752,612.047363 
	C428.917725,598.933533 427.085358,585.808594 425.068512,572.309204 
z"/>
<path fill="#B52B32" opacity="1.000000" stroke="none" 
	d="
M674.328064,659.459045 
	C674.328064,659.459045 674.092529,659.870056 673.980103,659.408936 
	C674.574646,656.081909 675.710205,653.246033 675.913696,650.344849 
	C676.748108,638.448181 677.332520,626.533386 677.945801,614.622009 
	C678.994019,594.263733 679.940735,573.900024 681.038147,553.544495 
	C681.590881,543.294312 682.097412,533.027710 683.150818,522.822815 
	C684.042297,514.186890 686.318298,505.829132 692.064880,498.951447 
	C694.904358,495.553040 698.088623,492.442688 701.486816,489.147736 
	C726.709595,480.630646 751.562439,472.167816 776.415344,463.704956 
	C780.634155,468.082886 779.159241,473.417603 778.574524,478.410522 
	C777.219055,489.986267 775.463989,501.514832 773.919800,513.069031 
	C769.993164,542.449036 766.069092,571.829346 762.201843,601.217163 
	C761.360535,607.610352 758.317261,612.075378 752.608459,615.426697 
	C729.367432,629.070129 706.329529,643.059326 683.177856,656.855774 
	C681.354187,657.942505 679.231995,658.528381 676.329590,659.277527 
	C675.049805,659.291748 674.688904,659.375427 674.328064,659.459045 
z"/>
<path fill="#1C374D" opacity="1.000000" stroke="none" 
	d="
M552.291748,392.992096 
	C537.767456,361.073792 551.670471,321.524139 584.365845,304.141296 
	C610.441956,290.277649 636.755249,291.559998 660.859619,308.488159 
	C684.035645,324.764313 694.278992,347.992798 691.059814,376.488068 
	C690.524963,381.222351 688.696289,385.810486 686.813843,390.744537 
	C682.877747,391.681976 679.570618,392.990143 676.313293,392.876099 
	C667.186523,392.556671 658.063049,391.807556 648.983704,390.813477 
	C647.539856,390.655396 646.330566,388.354187 645.114746,386.712738 
	C653.716003,375.137085 655.305603,362.881317 649.128418,350.311249 
	C643.260620,338.370789 633.292358,331.918335 619.696045,331.553711 
	C606.095032,331.188904 592.795715,340.071777 587.851746,352.952393 
	C582.929016,365.777679 586.469910,381.871887 595.909058,390.390869 
	C594.319153,391.191132 592.841797,391.817627 591.319946,391.956665 
	C587.371094,392.317352 583.405151,392.590851 579.441467,392.669830 
	C570.393005,392.850159 561.341797,392.893250 552.291748,392.992096 
z"/>
<path fill="#B62C32" opacity="1.000000" stroke="none" 
	d="
M461.513855,627.449829 
	C460.463562,616.190613 459.817078,605.010315 459.161438,593.830627 
	C458.782837,587.374878 458.426544,580.917480 457.987885,574.465698 
	C457.747986,570.937134 457.357452,567.418884 457.062378,564.196899 
	C461.006348,566.778381 464.453522,570.461731 468.540619,571.422363 
	C478.005859,573.647095 487.770294,574.629211 497.432495,575.978333 
	C510.862091,577.853394 524.307556,579.615479 537.749207,581.403259 
	C549.385742,582.950867 561.028992,584.448547 572.664795,586.001648 
	C583.808777,587.489136 594.939392,589.079285 606.090515,590.510803 
	C613.867615,591.509094 621.669373,592.315979 630.566650,593.335205 
	C623.205811,575.379761 622.543335,559.014160 634.320068,543.243286 
	C635.770508,542.430176 636.863892,542.122375 637.969116,542.294739 
	C637.937744,574.327393 637.894531,605.879944 637.851379,637.432434 
	C594.882629,631.252136 551.913513,625.073914 508.946472,618.881836 
	C507.632538,618.692505 506.317719,618.436951 505.039948,618.080872 
	C493.567688,614.883362 482.923431,616.137695 472.903656,623.075562 
	C469.732758,625.271179 465.604156,626.083618 461.513855,627.449829 
z"/>
<path fill="#E13B40" opacity="1.000000" stroke="none" 
	d="
M637.923218,637.845154 
	C637.894531,605.879944 637.937744,574.327393 637.978271,541.846741 
	C638.211426,527.564575 638.447205,514.210571 638.693970,500.230927 
	C636.394775,499.570099 633.026062,498.601868 629.657288,497.633606 
	C644.199219,476.505432 658.741211,455.377289 673.876831,434.331177 
	C674.597107,435.543060 674.911865,436.688202 674.821289,437.800293 
	C673.922485,448.833557 672.956604,459.861298 671.801453,471.175446 
	C665.643738,474.359863 659.694336,477.259430 653.744934,480.159027 
	C653.858948,480.771729 653.973022,481.384460 654.087036,481.997192 
	C656.800476,483.003906 659.473877,484.140137 662.234375,484.995178 
	C674.914795,488.922760 688.008179,489.160034 701.116943,489.201965 
	C698.088623,492.442688 694.904358,495.553040 692.064880,498.951447 
	C686.318298,505.829132 684.042297,514.186890 683.150818,522.822815 
	C682.097412,533.027710 681.590881,543.294312 681.038147,553.544495 
	C679.940735,573.900024 678.994019,594.263733 677.945801,614.622009 
	C677.332520,626.533386 676.748108,638.448181 675.913696,650.344849 
	C675.710205,653.246033 674.574646,656.081909 673.743652,659.395325 
	C664.780334,658.884827 655.812073,658.547424 647.148010,656.746521 
	C641.542419,655.581299 638.936523,650.427917 638.347839,644.700684 
	C638.128174,642.563538 638.106812,640.406067 637.923218,637.845154 
z"/>
<path fill="#4FACD5" opacity="1.000000" stroke="none" 
	d="
M473.856018,759.090576 
	C473.866669,775.384888 473.866669,791.192139 473.866669,807.444824 
	C467.960968,807.444824 462.064667,807.444824 455.626221,807.444824 
	C455.626221,777.706421 455.626221,747.835144 455.626221,717.082947 
	C463.459137,717.082947 471.528137,716.981628 479.586029,717.235168 
	C480.418549,717.261414 481.499939,719.294983 481.933807,720.577271 
	C488.068512,738.706482 494.108673,756.867798 500.179047,775.018860 
	C500.944061,777.306396 501.750488,779.580017 503.042236,783.321167 
	C506.065887,774.730347 508.610077,767.619873 511.071991,760.481079 
	C515.466858,747.737183 519.942749,735.018616 524.098938,722.196777 
	C525.355896,718.319153 527.038879,716.559753 531.418091,716.853760 
	C538.014832,717.296631 544.663269,716.969238 551.671387,716.969238 
	C551.671387,747.316895 551.671387,777.211731 551.671387,807.539856 
	C545.670471,807.539856 539.617737,807.539856 533.126953,807.539856 
	C533.126953,786.316833 533.126953,765.061707 533.126953,742.272766 
	C530.113892,751.199768 527.633240,758.850952 524.950134,766.430603 
	C520.510742,778.972046 515.849487,791.435547 511.492432,804.004944 
	C510.447266,807.020142 508.951538,808.393005 505.748962,807.994202 
	C504.109619,807.790100 502.390503,807.763550 500.763672,808.017273 
	C497.253754,808.564697 495.844574,806.914307 494.772034,803.737000 
	C488.603546,785.462402 482.225555,767.258484 475.907715,749.034363 
	C475.383545,747.522461 474.779144,746.038391 473.114532,744.718079 
	C473.358154,749.346558 473.601776,753.975037 473.856018,759.090576 
z"/>
<path fill="#B52D34" opacity="1.000000" stroke="none" 
	d="
M735.077515,453.859955 
	C738.454407,436.510529 741.811340,419.157135 745.213562,401.812683 
	C749.060974,382.198486 753.286499,362.650543 756.688904,342.959991 
	C758.635315,331.695557 759.083313,320.205780 755.832764,308.951599 
	C750.853088,291.711212 739.434082,280.440277 722.945251,274.179169 
	C714.813782,271.091492 706.443787,268.632111 698.085571,265.539307 
	C719.144897,267.390045 739.822205,271.778656 758.918274,281.337982 
	C777.703979,290.741943 785.756042,307.482269 783.986389,327.526642 
	C782.223511,347.494751 777.846619,367.248413 774.285034,387.036530 
	C771.072510,404.885040 767.374390,422.645691 763.976318,440.461456 
	C763.118225,444.960297 762.588501,449.521790 761.413208,454.509033 
	C752.304871,454.595703 743.691162,454.227844 735.077515,453.859955 
z"/>
<path fill="#EA6564" opacity="1.000000" stroke="none" 
	d="
M629.378662,497.823914 
	C633.026062,498.601868 636.394775,499.570099 638.693970,500.230927 
	C638.447205,514.210571 638.211426,527.564575 637.966492,541.366577 
	C636.863892,542.122375 635.770508,542.430176 634.370544,542.895874 
	C617.306152,541.418762 600.529907,539.949707 583.795471,538.101990 
	C567.061707,536.254150 550.356323,534.129944 533.662964,531.940063 
	C514.686401,529.450745 495.719391,526.873352 476.787415,524.069641 
	C471.653809,523.309448 466.661621,521.594055 461.336121,519.810669 
	C462.984528,517.840698 464.695343,515.834351 466.856293,515.014282 
	C473.668701,512.429138 480.583710,510.061737 487.578949,508.021271 
	C505.048401,502.925568 522.583984,498.056488 540.555542,493.082733 
	C552.724609,492.963074 564.431152,492.857178 576.528931,492.820831 
	C578.249329,492.887115 579.578491,492.883850 581.328491,492.927673 
	C586.118469,493.639832 590.468445,494.565735 594.862793,494.890503 
	C598.644592,495.170013 602.476990,494.763947 606.287048,494.661011 
	C608.239563,497.088379 610.130676,499.568298 612.156677,501.932678 
	C617.067444,507.663727 621.012512,507.617920 625.972717,501.836853 
	C627.044495,500.587738 628.059143,499.289673 629.378662,497.823914 
M604.877136,520.545166 
	C608.466125,519.016907 613.336243,518.312866 613.091980,513.231445 
	C612.872253,508.662384 608.320557,507.809143 604.824524,506.391083 
	C603.905701,506.018372 602.931702,505.760773 601.963440,505.534149 
	C587.744873,502.207123 573.388855,501.174438 558.964844,503.733490 
	C554.283081,504.564117 549.569824,505.973846 545.265442,507.969421 
	C540.634216,510.116577 540.513733,514.460938 544.820068,517.278625 
	C547.539978,519.058350 550.678040,520.531738 553.832275,521.259460 
	C570.601624,525.128479 587.399658,525.357666 604.877136,520.545166 
z"/>
<path fill="#E13E44" opacity="1.000000" stroke="none" 
	d="
M692.117981,762.867676 
	C701.308716,768.907776 705.621826,776.914795 704.034546,787.694580 
	C702.824951,795.909058 698.649231,802.031921 690.862610,805.154114 
	C677.419800,810.544312 663.823486,810.740723 650.545654,804.778381 
	C639.948853,800.019958 634.440918,790.454590 635.571655,779.781677 
	C641.282593,779.781677 647.036255,779.781677 652.767456,779.781677 
	C655.341675,792.336304 663.252136,795.600891 676.695618,793.497009 
	C680.964661,792.828857 684.142639,790.320312 684.832397,785.794861 
	C685.527893,781.231262 683.789124,777.440552 679.632629,775.360474 
	C675.485596,773.285095 671.041260,771.813049 666.788025,769.938599 
	C660.708984,767.259521 654.286926,765.088501 648.713501,761.583862 
	C632.745178,751.542847 633.921997,728.681274 650.818909,720.295227 
	C662.757019,714.370178 675.393066,714.067505 687.632080,719.214783 
	C697.941162,723.550476 703.814941,731.658936 704.340820,743.644104 
	C697.964355,743.644104 691.763184,743.644104 685.561340,743.644104 
	C682.725220,732.859924 674.830627,728.255493 664.545166,732.213989 
	C661.574219,733.357422 658.567383,736.593201 657.360718,739.588318 
	C655.810486,743.436340 658.169434,747.245605 661.833557,749.197693 
	C666.068054,751.453674 670.678711,752.993408 675.074036,754.960327 
	C680.682251,757.469971 686.238403,760.095825 692.117981,762.867676 
z"/>
<path fill="#1F3850" opacity="1.000000" stroke="none" 
	d="
M231.624756,721.336426 
	C239.482132,726.809753 243.783875,733.861938 244.163986,743.585205 
	C237.748566,743.585205 231.663300,743.585205 225.575531,743.584839 
	C223.346985,731.198303 212.557022,728.764160 202.618729,732.703674 
	C195.520111,735.517639 194.334351,743.866760 200.694580,748.141052 
	C205.165848,751.145935 210.564911,752.766052 215.539093,755.027893 
	C220.978119,757.501160 226.684113,759.535950 231.776581,762.590698 
	C241.195908,768.240967 245.688980,776.732361 243.894180,787.886292 
	C242.180878,798.533691 235.264587,804.392334 225.298523,807.078491 
	C213.852859,810.163635 202.508347,809.806396 191.558426,805.074890 
	C180.640320,800.356995 174.698349,790.813049 175.550629,779.680298 
	C181.134079,779.680298 186.751556,779.680298 192.469772,779.680298 
	C192.616852,779.815186 193.000839,779.994324 193.074356,780.259583 
	C196.296890,791.886780 203.039124,796.028809 215.437927,793.879333 
	C220.202957,793.053284 223.967438,790.862854 224.962677,785.685242 
	C225.872131,780.953796 223.335876,776.268188 218.231323,774.089172 
	C212.128067,771.483887 205.760971,769.500916 199.629395,766.956299 
	C195.969711,765.437500 192.360519,763.637390 189.046753,761.476074 
	C180.832230,756.118408 176.758087,748.527832 177.920776,738.568848 
	C179.036621,729.011230 184.659134,722.543030 193.234955,719.216492 
	C206.048523,714.246094 218.937485,714.388489 231.624756,721.336426 
z"/>
<path fill="#1C374D" opacity="1.000000" stroke="none" 
	d="
M274.486877,745.988525 
	C275.371582,746.150269 276.330444,746.161743 276.866699,745.691406 
	C288.909790,735.128601 306.511993,737.931946 313.683960,752.197388 
	C320.633423,766.020386 320.936005,780.586060 314.475067,794.647095 
	C307.439789,809.958130 290.327332,813.531494 275.661224,802.709534 
	C275.661224,813.383728 275.661224,823.553528 275.661224,833.950500 
	C269.157867,833.950500 263.384186,833.950500 257.162537,833.950500 
	C257.162537,802.906799 257.162537,772.036560 257.162537,740.803223 
	C262.507111,740.803223 267.906342,740.803223 273.793884,740.803223 
	C273.984406,742.410583 274.174286,744.012207 274.486877,745.988525 
M297.700287,788.002136 
	C300.909607,779.271729 301.080902,770.396484 298.075317,761.680176 
	C296.029053,755.745789 290.061249,753.240356 283.338165,754.675354 
	C277.274353,755.969666 275.379395,758.603149 275.364349,765.778442 
	C275.351105,772.089966 275.507690,778.407166 275.287384,784.711304 
	C275.110870,789.762817 277.852234,792.372864 282.121979,793.864563 
	C287.942200,795.897949 293.417175,793.952148 297.700287,788.002136 
z"/>
<path fill="#1F3850" opacity="1.000000" stroke="none" 
	d="
M330.090424,758.142700 
	C338.478271,742.437805 350.270111,736.758240 368.953125,739.127625 
	C381.814331,740.758728 393.311035,751.427551 396.540894,764.728943 
	C400.170593,779.677002 394.450104,794.862915 381.998596,803.333984 
	C370.070282,811.449036 351.521210,811.061096 340.149170,802.458923 
	C328.915894,793.961792 323.899506,776.539368 328.584167,762.245728 
	C328.998352,760.981995 329.502563,759.747681 330.090424,758.142700 
M377.986053,755.427063 
	C374.227325,757.993408 370.468597,760.559753 366.304718,763.402649 
	C364.815735,756.272827 363.476929,749.861877 362.138092,743.450928 
	C361.862152,743.485535 361.586182,743.520081 361.310242,743.554688 
	C360.061890,749.974365 358.813538,756.393982 357.468506,763.310852 
	C352.479126,760.150757 348.061066,757.352539 343.643005,754.554260 
	C343.375916,754.876221 343.108795,755.198120 342.841705,755.520081 
	C345.782074,759.747742 348.722473,763.975403 352.057434,768.770447 
	C345.423340,769.956848 339.761292,770.969421 334.099243,771.981995 
	C334.031494,772.457031 333.963776,772.932068 333.896027,773.407104 
	C339.675659,774.713806 345.455261,776.020508 351.686981,777.429382 
	C348.178436,782.564331 345.063232,787.123657 341.948029,791.682922 
	C342.220520,791.951172 342.493011,792.219421 342.765503,792.487671 
	C347.373474,789.236450 351.981445,785.985168 357.197906,782.304626 
	C358.595856,789.816101 359.856049,796.587585 361.116272,803.359131 
	C361.383820,803.361389 361.651337,803.363647 361.918854,803.365906 
	C363.334930,796.505920 364.750977,789.645935 366.324249,782.024414 
	C371.165100,785.500549 375.219971,788.412354 379.274841,791.324097 
	C379.675598,790.946594 380.076324,790.569092 380.477081,790.191528 
	C377.620850,785.993408 374.764648,781.795227 371.549957,777.070129 
	C378.807159,775.746277 385.193878,774.581177 391.580597,773.416077 
	C391.545685,773.107178 391.510742,772.798279 391.475800,772.489380 
	C385.073975,771.261536 378.672180,770.033630 371.695312,768.695435 
	C375.205200,763.590515 378.252258,759.158691 381.964569,753.759399 
	C380.092072,754.367004 379.295441,754.625488 377.986053,755.427063 
M341.462311,793.442749 
	C341.462311,793.442749 341.467560,793.373413 341.462311,793.442749 
z"/>
<path fill="#4FACD5" opacity="1.000000" stroke="none" 
	d="
M568.910339,757.160461 
	C566.958069,751.472717 565.109375,746.163025 562.952515,739.968323 
	C569.311218,739.968323 575.068115,739.769043 580.789124,740.133484 
	C581.957031,740.207886 583.547424,742.222839 583.996460,743.642700 
	C587.408569,754.430603 590.579224,765.294739 593.844482,776.129272 
	C594.173279,777.220154 594.630859,778.272156 595.357056,780.225342 
	C596.119629,778.424805 596.671326,777.383423 597.012024,776.277039 
	C600.391907,765.302551 603.637817,754.284851 607.213623,743.375000 
	C607.675049,741.967163 609.731018,740.243225 611.155640,740.139526 
	C616.441772,739.754578 621.772705,739.986145 628.077759,739.986145 
	C625.546692,747.418457 623.282349,754.245361 620.899719,761.030701 
	C613.905212,780.949402 607.079895,800.931580 599.754272,820.728333 
	C595.766724,831.504272 585.852234,836.765198 574.520264,834.778442 
	C573.137634,834.536072 571.235718,832.588196 571.031372,831.214050 
	C570.525879,827.814209 570.865540,824.288818 570.865540,820.414307 
	C573.011780,820.246155 574.786987,820.190613 576.538025,819.955261 
	C583.686890,818.994629 587.884949,812.446289 585.581360,805.691589 
	C580.102295,789.625732 574.541626,773.587708 568.910339,757.160461 
z"/>
<path fill="#E13E44" opacity="1.000000" stroke="none" 
	d="
M789.515503,749.614502 
	C797.874207,737.296753 822.734070,736.024109 834.394592,745.419739 
	C839.614746,749.625916 841.420654,755.412842 841.534058,761.811340 
	C841.681641,770.141602 841.451660,778.480774 841.704773,786.806274 
	C841.909607,793.542175 842.588501,800.263611 843.104370,807.670410 
	C838.254150,807.670410 832.646301,808.014893 827.137207,807.429688 
	C825.750366,807.282410 824.679810,804.158142 823.217529,802.046021 
	C822.162292,802.779480 820.755676,803.800476 819.306824,804.757568 
	C805.491760,813.882263 787.037354,807.025879 784.718567,791.914734 
	C783.316101,782.775146 787.586975,774.075806 796.466248,770.318542 
	C801.724182,768.093689 807.603943,767.213440 813.284546,766.164368 
	C816.156494,765.633972 819.207153,766.071716 822.072144,766.071716 
	C823.338562,758.832275 821.792603,755.104492 817.202759,753.523926 
	C811.364136,751.513367 807.018433,753.290894 803.925049,758.776733 
	C803.453796,759.612427 802.362793,760.614563 801.526794,760.644104 
	C796.570923,760.819336 791.605774,760.730591 785.234619,760.730591 
	C786.829285,756.497620 788.069031,753.206604 789.515503,749.614502 
M803.656677,782.385742 
	C801.109192,788.072876 802.230042,792.203735 806.802124,793.978333 
	C811.822571,795.926941 821.849121,793.061035 822.627014,788.965149 
	C823.344971,785.184937 822.779846,781.160950 822.779846,777.317078 
	C812.909241,775.871033 808.834778,776.871948 803.656677,782.385742 
z"/>
<path fill="#E13E44" opacity="1.000000" stroke="none" 
	d="
M732.928955,741.829712 
	C738.167358,740.869812 743.070862,739.294250 747.937805,739.400024 
	C762.015442,739.705933 771.774414,748.056580 774.522644,761.884460 
	C775.645508,767.534119 775.773926,773.381348 776.424011,779.825317 
	C761.809631,779.825317 747.942078,779.825317 733.625549,779.825317 
	C733.751221,785.807861 736.167480,789.858093 740.786926,792.081360 
	C749.730591,796.385620 757.900757,794.298767 765.533325,787.698914 
	C768.390869,790.747070 771.191589,793.734558 774.011475,796.742432 
	C767.177185,807.706726 751.283325,810.667725 738.293030,807.809753 
	C725.424316,804.978455 716.647034,795.289551 714.908325,781.820007 
	C712.430908,762.627747 718.285095,749.428284 732.928955,741.829712 
M738.550598,756.950439 
	C736.716492,760.240417 734.882324,763.530457 732.589844,767.642700 
	C742.054871,767.642700 749.799194,767.642700 757.761902,767.642700 
	C758.208374,762.537781 756.870056,758.384705 752.722778,755.748474 
	C748.179749,752.860718 743.524597,753.597351 738.550598,756.950439 
z"/>
<path fill="#E03C40" opacity="1.000000" stroke="none" 
	d="
M576.137695,492.751282 
	C564.431152,492.857178 552.724609,492.963074 540.523315,492.639282 
	C539.833618,490.745514 539.539551,489.286835 539.460205,487.816498 
	C538.999207,479.276428 538.240662,470.732269 538.275452,462.192261 
	C538.301392,455.817139 539.373962,449.446289 539.984009,442.653931 
	C539.990295,440.836487 539.993042,439.438599 539.995728,438.040710 
	C542.309448,428.625488 544.622192,419.210022 546.937744,409.795258 
	C547.361755,408.071198 547.797302,406.349976 548.181702,404.810852 
	C558.141846,421.319733 568.052673,437.746918 577.858398,454.906036 
	C577.214722,468.009064 576.676208,480.380157 576.137695,492.751282 
z"/>
<path fill="#EA6564" opacity="1.000000" stroke="none" 
	d="
M734.656128,453.911499 
	C743.691162,454.227844 752.304871,454.595703 761.339661,454.949158 
	C766.564026,457.642273 771.367249,460.349884 776.292908,463.381226 
	C751.562439,472.167816 726.709595,480.630646 701.486816,489.147705 
	C688.008179,489.160034 674.914795,488.922760 662.234375,484.995178 
	C659.473877,484.140137 656.800476,483.003906 654.087036,481.997192 
	C653.973022,481.384460 653.858948,480.771729 653.744934,480.159027 
	C659.694336,477.259430 665.643738,474.359863 672.147339,471.167633 
	C674.135986,470.250488 675.570435,469.625946 677.004883,469.001373 
	C696.081543,463.988586 715.158142,458.975830 734.656128,453.911499 
z"/>
<path fill="#4AAFD4" opacity="1.000000" stroke="none" 
	d="
M487.247925,267.335022 
	C481.953094,269.871368 476.714508,272.534515 471.350433,274.914856 
	C462.906830,278.661743 454.378723,282.218353 445.472321,285.526611 
	C443.587799,283.930328 442.219971,282.514069 440.630768,281.419128 
	C427.656036,272.479858 414.639954,263.600525 401.636475,254.702972 
	C413.720673,249.443039 425.808441,244.191330 437.885162,238.914337 
	C439.695648,238.123230 441.454437,237.213821 443.650330,236.638702 
	C450.399963,241.600418 456.648407,246.407974 463.095276,250.932800 
	C471.059967,256.522980 479.189575,261.878235 487.247925,267.335022 
z"/>
<path fill="#4AAFD4" opacity="1.000000" stroke="none" 
	d="
M513.723022,339.156067 
	C506.463257,354.846771 498.821289,370.509216 490.994965,386.079010 
	C490.395111,387.272400 488.571747,388.375824 487.185333,388.567352 
	C473.730530,390.425781 460.247650,392.080444 445.339966,393.975372 
	C453.574707,377.239380 461.330322,361.477081 469.080933,345.339172 
	C483.815338,343.010559 498.554840,341.057526 513.723022,339.156067 
z"/>
<path fill="#4AAFD4" opacity="1.000000" stroke="none" 
	d="
M347.063812,360.280396 
	C339.802643,375.866364 332.125366,391.380096 324.274597,406.805542 
	C323.643341,408.045868 321.900238,409.319153 320.535065,409.494080 
	C307.498749,411.164032 294.432800,412.603027 281.372833,414.086182 
	C281.080566,414.119354 280.758667,413.891357 279.729218,413.536560 
	C280.405640,411.929443 280.982269,410.326202 281.734009,408.809814 
	C288.022919,396.124390 294.355682,383.460663 300.637939,370.771942 
	C301.290192,369.454498 301.699921,368.016998 302.177979,366.244019 
	C316.956909,363.963715 331.780029,362.074615 347.063812,360.280396 
z"/>
<path fill="#4AAFD4" opacity="1.000000" stroke="none" 
	d="
M410.297516,300.250702 
	C399.488556,305.111908 388.686249,309.987976 377.865784,314.823425 
	C375.302551,315.968903 372.678406,316.978210 369.493164,317.811096 
	C368.236237,317.083557 367.579010,316.579834 366.899017,316.108917 
	C353.121979,306.566956 339.342285,297.028778 325.563141,287.489838 
	C335.503662,283.038666 345.439789,278.577667 355.386993,274.141418 
	C359.016449,272.522766 362.672180,270.963135 366.752686,269.647217 
	C371.121277,272.919647 374.946106,276.075653 379.005951,278.893066 
	C389.380646,286.092743 399.860016,293.141571 410.297516,300.250702 
z"/>
<path fill="#4AAFD4" opacity="1.000000" stroke="none" 
	d="
M292.623322,350.269714 
	C286.742310,346.636108 281.206512,343.068634 275.763275,339.365082 
	C266.890076,333.327911 258.077271,327.201935 248.983658,320.838623 
	C262.188507,314.668732 275.648651,308.773621 289.707092,303.113281 
	C292.193970,304.695496 294.064636,306.068939 295.974091,307.386169 
	C308.379944,315.944397 320.794281,324.490326 333.205841,333.040283 
	C325.479828,336.605774 317.812622,340.306885 310.007935,343.690948 
	C304.437622,346.106171 298.682648,348.095459 292.623322,350.269714 
z"/>
<path fill="#1F3850" opacity="1.000000" stroke="none" 
	d="
M416.263123,803.741943 
	C414.540741,799.166382 412.105011,794.908569 411.818542,790.510803 
	C411.159271,780.389954 411.309143,770.193970 411.608459,760.042603 
	C411.754272,755.097290 410.680969,752.384644 405.157593,753.296326 
	C404.229889,753.449402 403.234558,753.192993 402.086334,753.112976 
	C402.086334,748.767029 402.086334,744.705750 402.086334,740.365051 
	C405.138092,740.220520 407.903534,740.089600 411.321350,739.927734 
	C411.321350,734.537170 411.321350,729.335388 411.321350,723.851074 
	C417.737671,723.851074 423.489105,723.851074 429.885620,723.851074 
	C429.885620,727.622314 430.203186,731.258362 429.806549,734.814819 
	C429.292236,739.426819 431.174072,740.825317 435.450134,740.232727 
	C437.075073,740.007568 438.757294,740.196106 440.898132,740.196106 
	C440.898132,744.546753 440.898132,748.714722 440.898132,753.333008 
	C437.456879,753.333008 434.017548,753.333008 429.931732,753.333008 
	C429.931732,759.845764 429.929047,765.948547 429.932587,772.051392 
	C429.935333,776.715759 429.875580,781.381531 429.969971,786.044128 
	C430.101959,792.563843 432.092621,794.282227 438.617584,793.714966 
	C439.424133,793.644836 440.228516,793.549927 441.524292,793.415710 
	C441.524292,797.903259 441.524292,802.136414 441.524292,806.976685 
	C433.015198,809.549011 424.453400,810.138672 416.263123,803.741943 
z"/>
<path fill="#4AAFD4" opacity="1.000000" stroke="none" 
	d="
M429.908447,349.967682 
	C424.004883,363.197235 417.128540,376.144012 411.451721,389.596954 
	C408.288269,397.093750 403.778259,399.924530 395.903564,400.265533 
	C386.974518,400.652222 378.108368,402.461578 369.210022,403.614838 
	C367.595978,403.824005 365.958466,403.852295 363.334869,404.032654 
	C364.517212,401.144958 365.291992,398.886414 366.337158,396.760834 
	C372.208252,384.820801 378.159821,372.920349 384.040466,360.984924 
	C384.836151,359.369995 385.387207,357.634491 386.055542,355.589600 
	C400.518707,353.448364 414.977814,351.672394 429.908447,349.967682 
z"/>
<path fill="#E13E44" opacity="1.000000" stroke="none" 
	d="
M856.066833,740.218506 
	C859.966614,740.694824 861.301025,739.323608 861.032593,735.771912 
	C860.746704,731.987854 860.968323,728.165466 860.968323,723.930786 
	C867.154297,723.930786 872.891602,723.930786 879.487000,723.930786 
	C879.487000,727.378967 879.760376,730.983887 879.419739,734.529846 
	C878.965210,739.261169 880.950500,740.822693 885.413208,740.279724 
	C887.006226,740.085876 888.661133,740.401184 890.596924,740.499878 
	C890.596924,744.846069 890.596924,748.898315 890.596924,753.182922 
	C889.507812,753.292908 888.540649,753.496765 887.579468,753.471191 
	C877.827820,753.212463 879.290588,753.223450 879.238831,761.658630 
	C879.189880,769.643860 879.335510,777.630371 879.417725,785.616089 
	C879.493530,792.986755 880.846558,794.238647 888.366455,793.993103 
	C889.011108,793.972046 889.657104,793.990295 891.173889,793.990295 
	C891.173889,797.797119 891.379211,801.422729 891.043396,804.997559 
	C890.948059,806.011414 889.257751,807.696838 888.328064,807.677490 
	C882.282410,807.551575 875.955261,808.043030 870.277527,806.403015 
	C863.106018,804.331482 861.270569,797.531616 861.111877,790.721252 
	C860.871521,780.409973 860.997192,770.090271 860.969116,759.774109 
	C860.964233,757.971985 860.968445,756.169861 860.968445,753.868958 
	C857.535034,753.605713 854.482422,753.371704 851.219971,753.121643 
	C851.219971,748.906799 851.219971,744.965942 851.219971,740.577087 
	C852.734924,740.454224 854.170105,740.337769 856.066833,740.218506 
z"/>
<path fill="#EA6564" opacity="1.000000" stroke="none" 
	d="
M539.764893,437.775330 
	C539.993042,439.438599 539.990295,440.836487 539.600708,442.682709 
	C527.369019,446.740112 515.489807,450.241180 503.688721,453.988098 
	C491.434387,457.878937 479.255524,462.007538 467.043671,466.032166 
	C454.264526,467.030060 442.209015,464.271423 430.648315,458.988220 
	C430.098145,458.736755 429.663971,458.231445 429.110901,457.507111 
	C433.355621,455.104858 437.513641,452.602051 442.000397,451.049072 
	C463.667603,443.549622 485.665649,437.062012 508.535217,434.690002 
	C516.653320,433.848022 525.015686,435.361145 533.675232,435.802979 
	C535.900635,436.374573 537.717285,436.942261 539.764893,437.775330 
z"/>
<path fill="#1C374D" opacity="1.000000" stroke="none" 
	d="
M333.572998,333.050964 
	C320.794281,324.490326 308.379944,315.944397 295.974091,307.386169 
	C294.064636,306.068939 292.193970,304.695496 290.079102,303.079712 
	C301.511169,297.711304 313.169464,292.611237 325.195435,287.500488 
	C339.342285,297.028778 353.121979,306.566956 366.899017,316.108917 
	C367.579010,316.579834 368.236237,317.083557 369.138916,317.842651 
	C357.562592,323.096069 345.751373,328.078857 333.572998,333.050964 
z"/>
<path fill="#1C374D" opacity="1.000000" stroke="none" 
	d="
M410.660492,300.232178 
	C399.860016,293.141571 389.380646,286.092743 379.005951,278.893066 
	C374.946106,276.075653 371.121277,272.919647 367.099060,269.605011 
	C378.313019,264.457764 389.617371,259.623322 401.279083,254.745941 
	C414.639954,263.600525 427.656036,272.479858 440.630768,281.419128 
	C442.219971,282.514069 443.587799,283.930328 445.122559,285.539886 
	C433.799103,290.659271 422.411285,295.436462 410.660492,300.232178 
z"/>
<path fill="#35334C" opacity="1.000000" stroke="none" 
	d="
M565.903198,420.033020 
	C563.874512,416.639404 561.845764,413.245819 560.031982,409.300293 
	C561.289062,407.838562 562.269775,406.232391 563.383606,406.133972 
	C569.818176,405.565430 576.283386,405.334686 582.739929,405.025543 
	C587.955811,404.775818 593.269714,405.121033 598.368774,404.226044 
	C605.716309,402.936371 613.455139,404.509155 620.487854,401.140442 
	C620.613647,401.080139 620.812378,401.159729 620.974365,401.188995 
	C627.571045,402.381836 634.126465,404.001862 640.776245,404.640564 
	C646.442383,405.184814 652.217407,404.623505 657.943420,404.508118 
	C663.191589,404.402405 668.461243,403.912140 673.674561,404.271027 
	C675.604614,404.403900 677.401306,406.472534 679.258789,407.658325 
	C677.659058,410.945953 676.059326,414.233582 673.795166,417.748169 
	C670.513428,417.692383 667.887634,417.106384 665.280212,417.178558 
	C653.193176,417.513245 641.114319,418.204102 629.026367,418.422852 
	C620.641663,418.574585 612.244568,417.967010 603.856995,418.060028 
	C593.987122,418.169434 584.119202,418.615295 574.255554,419.034515 
	C571.462341,419.153259 568.686829,419.688690 565.903198,420.033020 
z"/>
<path fill="#1F3850" opacity="1.000000" stroke="none" 
	d="
M679.542725,407.428467 
	C677.401306,406.472534 675.604614,404.403900 673.674561,404.271027 
	C668.461243,403.912140 663.191589,404.402405 657.943420,404.508118 
	C652.217407,404.623505 646.442383,405.184814 640.776245,404.640564 
	C634.126465,404.001862 627.571045,402.381836 620.974365,401.188995 
	C620.812378,401.159729 620.613647,401.080139 620.487854,401.140442 
	C613.455139,404.509155 605.716309,402.936371 598.368774,404.226044 
	C593.269714,405.121033 587.955811,404.775818 582.739929,405.025543 
	C576.283386,405.334686 569.818176,405.565430 563.383606,406.133972 
	C562.269775,406.232391 561.289062,407.838562 559.898804,408.966156 
	C557.145264,404.022369 554.739868,398.860779 552.313110,393.345642 
	C561.341797,392.893250 570.393005,392.850159 579.441467,392.669830 
	C583.405151,392.590851 587.371094,392.317352 591.319946,391.956665 
	C592.841797,391.817627 594.319153,391.191132 596.237610,390.484253 
	C604.605286,396.727386 613.649048,399.443085 623.908325,398.128815 
	C632.339478,397.048767 639.025757,392.732788 645.012878,387.043793 
	C646.330566,388.354187 647.539856,390.655396 648.983704,390.813477 
	C658.063049,391.807556 667.186523,392.556671 676.313293,392.876099 
	C679.570618,392.990143 682.877747,391.681976 686.557983,391.011108 
	C684.578186,396.399048 682.202454,401.798828 679.542725,407.428467 
z"/>
<path fill="#703144" opacity="1.000000" stroke="none" 
	d="
M596.698059,468.093109 
	C591.529541,460.613129 586.360962,453.133118 581.569214,445.317200 
	C590.846130,444.992401 599.753296,445.235229 608.644958,444.964783 
	C625.372986,444.455933 642.092102,443.650879 658.814880,442.968994 
	C653.062073,451.513916 647.309204,460.058838 640.869751,468.788147 
	C632.507202,468.635010 624.831543,468.289978 617.155090,467.965912 
	C615.498718,467.895966 613.838745,467.862091 612.181152,467.879364 
	C607.019958,467.933136 601.859070,468.019440 596.698059,468.093109 
z"/>
<path fill="#48314A" opacity="1.000000" stroke="none" 
	d="
M565.930908,420.390503 
	C568.686829,419.688690 571.462341,419.153259 574.255554,419.034515 
	C584.119202,418.615295 593.987122,418.169434 603.856995,418.060028 
	C612.244568,417.967010 620.641663,418.574585 629.026367,418.422852 
	C641.114319,418.204102 653.193176,417.513245 665.280212,417.178558 
	C667.887634,417.106384 670.513428,417.692383 673.542786,417.985657 
	C671.270508,422.720825 668.586243,427.445557 665.351929,431.990417 
	C658.645081,431.539581 652.485229,430.986694 646.332031,431.052643 
	C630.431702,431.223114 614.521301,431.386017 598.641113,432.119049 
	C590.617493,432.489441 582.650635,434.088989 574.658081,435.132751 
	C571.758240,430.337830 568.858459,425.542908 565.930908,420.390503 
z"/>
<path fill="#1F3850" opacity="1.000000" stroke="none" 
	d="
M487.625854,267.324768 
	C479.189575,261.878235 471.059967,256.522980 463.095276,250.932800 
	C456.648407,246.407974 450.399963,241.600418 443.989197,236.592010 
	C450.486237,233.454910 456.953094,230.358643 463.655060,227.904434 
	C472.302612,224.737747 481.024658,227.198227 485.517670,235.028473 
	C490.607605,243.899063 494.464020,253.477432 499.087219,263.234497 
	C494.773438,264.822479 491.388611,266.068512 487.625854,267.324768 
z"/>
<path fill="#5B3147" opacity="1.000000" stroke="none" 
	d="
M574.727112,435.486389 
	C582.650635,434.088989 590.617493,432.489441 598.641113,432.119049 
	C614.521301,431.386017 630.431702,431.223114 646.332031,431.052643 
	C652.485229,430.986694 658.645081,431.539581 665.058411,432.176758 
	C663.326965,435.877106 661.338989,439.211212 659.083008,442.757141 
	C642.092102,443.650879 625.372986,444.455933 608.644958,444.964783 
	C599.753296,445.235229 590.846130,444.992401 581.517029,444.974548 
	C578.990784,441.925201 576.893494,438.882568 574.727112,435.486389 
z"/>
<path fill="#B52D34" opacity="1.000000" stroke="none" 
	d="
M596.803589,468.430664 
	C601.859070,468.019440 607.019958,467.933136 612.181152,467.879364 
	C613.838745,467.862091 615.498718,467.895966 617.155090,467.965912 
	C624.831543,468.289978 632.507202,468.635010 640.599609,468.982300 
	C637.253540,474.233643 633.490967,479.475159 629.169556,485.025269 
	C628.467041,485.709015 628.323303,486.084137 628.179565,486.459229 
	C628.179565,486.459229 628.132751,486.794312 627.595459,486.942535 
	C621.651367,487.110260 616.244446,487.129791 610.837585,487.149292 
	C606.194763,481.022247 601.551941,474.895233 596.803589,468.430664 
z"/>
<path fill="#E13E44" opacity="1.000000" stroke="none" 
	d="
M606.093994,494.381775 
	C602.476990,494.763947 598.644592,495.170013 594.862793,494.890503 
	C590.468445,494.565735 586.118469,493.639832 581.349243,492.474274 
	C581.708435,482.130554 582.467773,472.287415 583.227112,462.444244 
	C590.785034,472.997009 598.342957,483.549805 606.093994,494.381775 
z"/>
<path fill="#B52D34" opacity="1.000000" stroke="none" 
	d="
M677.052612,468.594147 
	C675.570435,469.625946 674.135986,470.250488 672.355652,470.882812 
	C672.956604,459.861298 673.922485,448.833557 674.821289,437.800293 
	C674.911865,436.688202 674.597107,435.543060 674.164673,434.153015 
	C677.299866,427.681763 680.740845,421.470795 684.449097,415.060547 
	C685.085327,415.873993 685.911926,416.964844 685.754517,417.887848 
	C683.420959,431.569855 680.943604,445.227203 678.534058,458.896362 
	C677.990234,461.981567 677.574829,465.089447 677.052612,468.594147 
z"/>
<path fill="#B52D34" opacity="1.000000" stroke="none" 
	d="
M583.037720,462.184875 
	C582.467773,472.287415 581.708435,482.130554 580.928406,492.427124 
	C579.578491,492.883850 578.249329,492.887115 576.528931,492.820831 
	C576.676208,480.380157 577.214722,468.009064 577.920166,455.245239 
	C579.674133,457.210175 581.261230,459.567871 583.037720,462.184875 
z"/>
<path fill="#B52D34" opacity="1.000000" stroke="none" 
	d="
M695.786865,344.771027 
	C699.921631,335.595520 704.087463,326.797089 708.253235,317.998688 
	C708.795532,318.228943 709.337769,318.459198 709.880066,318.689453 
	C708.145386,324.945770 706.437073,331.209503 704.666687,337.455719 
	C703.500916,341.568878 702.328857,345.684113 700.986633,349.741180 
	C700.502441,351.204620 699.513733,352.501190 698.395264,353.930969 
	C697.296204,351.041412 696.557068,348.094788 695.786865,344.771027 
z"/>
<path fill="#E13E44" opacity="1.000000" stroke="none" 
	d="
M610.858337,487.500427 
	C616.244446,487.129791 621.651367,487.110260 627.452026,487.032043 
	C625.203491,490.661163 622.561279,494.348999 619.335327,498.851532 
	C616.154724,494.714142 613.516907,491.282837 610.858337,487.500427 
z"/>
<path fill="#E13B40" opacity="1.000000" stroke="none" 
	d="
M674.571777,659.658691 
	C674.688904,659.375427 675.049805,659.291748 675.967651,659.222412 
	C675.954956,659.443970 675.385254,659.651184 674.571777,659.658691 
z"/>
<path fill="#E13E44" opacity="1.000000" stroke="none" 
	d="
M628.443970,486.312866 
	C628.323303,486.084137 628.467041,485.709015 628.896362,485.211426 
	C629.024109,485.448120 628.866272,485.807312 628.443970,486.312866 
z"/>
<path fill="#4AAFD4" opacity="1.000000" stroke="none" 
	d="
M228.622269,359.334473 
	C231.804626,363.287933 231.974014,367.469757 228.513458,370.235870 
	C226.383194,371.938660 222.327194,372.562927 219.591904,371.870300 
	C215.350372,370.796204 214.295944,366.809692 215.015076,362.631256 
	C216.012848,356.833679 222.618637,355.079681 228.622269,359.334473 
z"/>
<path fill="#B52D34" opacity="1.000000" stroke="none" 
	d="
M710.546631,316.472961 
	C710.577759,316.527557 710.515564,316.418365 710.546631,316.472961 
z"/>
<path fill="#B62C32" opacity="1.000000" stroke="none" 
	d="
M466.998840,466.373718 
	C479.255524,462.007538 491.434387,457.878937 503.688721,453.988098 
	C515.489807,450.241180 527.369019,446.740112 539.597168,443.102295 
	C539.373962,449.446289 538.301392,455.817139 538.275452,462.192261 
	C538.240662,470.732269 538.999207,479.276428 539.460205,487.816498 
	C539.539551,489.286835 539.833618,490.745514 540.060730,492.653046 
	C522.583984,498.056488 505.048401,502.925568 487.578949,508.021271 
	C480.583710,510.061737 473.668701,512.429138 466.856293,515.014282 
	C464.695343,515.834351 462.984528,517.840698 461.008209,519.652832 
	C459.274841,522.140625 457.600983,524.279663 455.709961,526.696289 
	C455.450562,525.986633 455.085907,525.433533 455.065674,524.868103 
	C454.687653,514.299133 453.911896,503.718994 454.145660,493.161682 
	C454.327942,484.929626 457.202728,477.339142 463.194824,471.246338 
	C464.565979,469.852142 465.707062,468.231659 466.998840,466.373718 
z"/>
<path fill="#FBFCFC" opacity="1.000000" stroke="none" 
	d="
M645.114746,386.712738 
	C639.025757,392.732788 632.339478,397.048767 623.908325,398.128815 
	C613.649048,399.443085 604.605286,396.727386 596.329956,390.088379 
	C586.469910,381.871887 582.929016,365.777679 587.851746,352.952393 
	C592.795715,340.071777 606.095032,331.188904 619.696045,331.553711 
	C633.292358,331.918335 643.260620,338.370789 649.128418,350.311249 
	C655.305603,362.881317 653.716003,375.137085 645.114746,386.712738 
z"/>
<path fill="#FBFCFC" opacity="1.000000" stroke="none" 
	d="
M604.500366,520.677795 
	C587.399658,525.357666 570.601624,525.128479 553.832275,521.259460 
	C550.678040,520.531738 547.539978,519.058350 544.820068,517.278625 
	C540.513733,514.460938 540.634216,510.116577 545.265442,507.969421 
	C549.569824,505.973846 554.283081,504.564117 558.964844,503.733490 
	C573.388855,501.174438 587.744873,502.207123 601.963440,505.534149 
	C602.931702,505.760773 603.905701,506.018372 604.824524,506.391083 
	C608.320557,507.809143 612.872253,508.662384 613.091980,513.231445 
	C613.336243,518.312866 608.466125,519.016907 604.500366,520.677795 
z"/>
<path fill="#FBFCFC" opacity="1.000000" stroke="none" 
	d="
M297.498444,788.323914 
	C293.417175,793.952148 287.942200,795.897949 282.121979,793.864563 
	C277.852234,792.372864 275.110870,789.762817 275.287384,784.711304 
	C275.507690,778.407166 275.351105,772.089966 275.364349,765.778442 
	C275.379395,758.603149 277.274353,755.969666 283.338165,754.675354 
	C290.061249,753.240356 296.029053,755.745789 298.075317,761.680176 
	C301.080902,770.396484 300.909607,779.271729 297.498444,788.323914 
z"/>
<path fill="#ECEEF0" opacity="1.000000" stroke="none" 
	d="
M378.242432,755.155518 
	C379.295441,754.625488 380.092072,754.367004 381.964569,753.759399 
	C378.252258,759.158691 375.205200,763.590515 371.695312,768.695435 
	C378.672180,770.033630 385.073975,771.261536 391.475800,772.489380 
	C391.510742,772.798279 391.545685,773.107178 391.580597,773.416077 
	C385.193878,774.581177 378.807159,775.746277 371.549957,777.070129 
	C374.764648,781.795227 377.620850,785.993408 380.477081,790.191528 
	C380.076324,790.569092 379.675598,790.946594 379.274841,791.324097 
	C375.219971,788.412354 371.165100,785.500549 366.324249,782.024414 
	C364.750977,789.645935 363.334930,796.505920 361.918854,803.365906 
	C361.651337,803.363647 361.383820,803.361389 361.116272,803.359131 
	C359.856049,796.587585 358.595856,789.816101 357.197906,782.304626 
	C351.981445,785.985168 347.373474,789.236450 342.765503,792.487671 
	C342.493011,792.219421 342.220520,791.951172 341.948029,791.682922 
	C345.063232,787.123657 348.178436,782.564331 351.686981,777.429382 
	C345.455261,776.020508 339.675659,774.713806 333.896027,773.407104 
	C333.963776,772.932068 334.031494,772.457031 334.099243,771.981995 
	C339.761292,770.969421 345.423340,769.956848 352.057434,768.770447 
	C348.722473,763.975403 345.782074,759.747742 342.841705,755.520081 
	C343.108795,755.198120 343.375916,754.876221 343.643005,754.554260 
	C348.061066,757.352539 352.479126,760.150757 357.468506,763.310852 
	C358.813538,756.393982 360.061890,749.974365 361.310242,743.554688 
	C361.586182,743.520081 361.862152,743.485535 362.138092,743.450928 
	C363.476929,749.861877 364.815735,756.272827 366.304718,763.402649 
	C370.468597,760.559753 374.227325,757.993408 378.242432,755.155518 
z"/>
<path fill="#ECEEF0" opacity="1.000000" stroke="none" 
	d="
M341.464935,793.408081 
	C341.467560,793.373413 341.462311,793.442749 341.464935,793.408081 
z"/>
<path fill="#FBFCFC" opacity="1.000000" stroke="none" 
	d="
M803.865112,782.065735 
	C808.834778,776.871948 812.909241,775.871033 822.779846,777.317078 
	C822.779846,781.160950 823.344971,785.184937 822.627014,788.965149 
	C821.849121,793.061035 811.822571,795.926941 806.802124,793.978333 
	C802.230042,792.203735 801.109192,788.072876 803.865112,782.065735 
z"/>
<path fill="#FBFCFC" opacity="1.000000" stroke="none" 
	d="
M738.838257,756.702637 
	C743.524597,753.597351 748.179749,752.860718 752.722778,755.748474 
	C756.870056,758.384705 758.208374,762.537781 757.761902,767.642700 
	C749.799194,767.642700 742.054871,767.642700 732.589844,767.642700 
	C734.882324,763.530457 736.716492,760.240417 738.838257,756.702637 
z"/>
</svg>